<svg width="512" height="512" viewBox="0 0 512 512" fill="none" xmlns="http://www.w3.org/2000/svg">
<g clip-path="url(#clip0_144_1947)">
<path d="M0 34C0 15.2223 15.2223 0 34 0H478C496.778 0 512 15.2223 512 34V478C512 496.778 496.778 512 478 512H34C15.2223 512 0 496.778 0 478V34Z" fill="url(#paint0_linear_144_1947)"/>
<path d="M0 34C0 15.2223 15.2223 0 34 0H478C496.778 0 512 15.2223 512 34V478C512 496.778 496.778 512 478 512H34C15.2223 512 0 496.778 0 478V34Z" fill="black" fill-opacity="0.3"/>
<g filter="url(#filter0_d_144_1947)">
<rect width="256" height="256" fill="url(#paint1_linear_144_1947)" fill-opacity="0.5"/>
<path d="M105.357 68.6641C107.088 65.7527 110.995 65.3163 113.536 67.3643C115.03 68.5681 116.361 69.4744 117.531 70.0977L117.933 70.2959C119.943 71.2527 121.979 71.7236 124.047 71.7236C126.28 71.7236 129.82 71.1017 134.727 69.8057L135.653 69.5586C140.237 68.3627 144.031 67.75 147.011 67.75C152.104 67.75 156.336 69.4849 159.632 72.9727H159.633C162.994 76.4258 164.634 81.0454 164.634 86.7266V94.7402H180.61C183.472 94.7405 185.791 97.0605 185.791 99.9219C185.791 102.783 183.472 105.103 180.61 105.104H165.462V185.969C165.462 189.547 162.561 192.448 158.982 192.448C155.404 192.448 152.503 189.547 152.503 185.969V152.455C148.355 153.979 143.66 154.736 138.428 154.736C135.872 154.736 132.982 154.532 129.764 154.13C129.919 155.486 129.999 156.785 129.999 158.027C129.999 165.198 127.606 171.277 122.814 176.204L122.812 176.207C117.99 181.113 111.489 183.526 103.416 183.526C97.9275 183.526 92.35 182.479 86.6885 180.396L86.6816 180.395V180.394C81.9958 178.628 77.5061 176.238 73.2139 173.227C71.2662 171.86 70.5505 169.376 71.2891 167.17C72.526 163.476 77.0252 162.276 80.1455 164.368C87.5096 169.306 94.7852 171.739 101.985 171.739C107.028 171.739 110.924 170.345 113.779 167.645L114.045 167.383C116.745 164.658 118.094 161.309 118.094 157.277C118.094 149.887 114.381 144.006 106.716 139.604C102.137 141.254 96.5092 142.215 90.7139 142.5C88.1041 142.628 85.8753 140.795 85.3203 138.298C84.555 134.853 87.1798 131.687 90.5908 131.406C97.168 130.865 102.58 129.34 106.39 126.898C111.359 123.696 113.651 120.095 113.651 116.116C113.651 112.788 112.392 110.152 109.853 108.129L109.845 108.123C107.3 106.05 103.665 104.953 98.8232 104.953C93.7419 104.953 88.5234 106.189 83.1602 108.688C79.9786 110.171 75.9747 108.845 74.7354 105.417C73.79 102.802 74.8445 99.7975 77.4346 98.5723C84.2023 95.3716 91.1841 93.7657 98.3711 93.7656C106.845 93.7656 113.496 95.8508 118.185 100.152H118.184C122.858 104.39 125.18 109.966 125.18 116.791C125.18 123.344 122.466 128.963 117.142 133.62C120.679 136.356 123.519 139.391 125.648 142.729C129.185 143.324 132.792 143.624 136.47 143.624C142.458 143.624 147.795 142.295 152.503 139.656V105.104H141.045C138.183 105.104 135.863 102.783 135.863 99.9219C135.863 97.0603 138.183 94.7402 141.045 94.7402H151.675V88.1504C151.675 85.2283 151.001 83.1519 149.793 81.7773L149.783 81.7666C148.586 80.3613 146.855 79.6124 144.451 79.6123C142.932 79.6123 140.106 80.1527 135.881 81.3047C131.603 82.4709 127.631 83.0605 123.971 83.0605C117.557 83.0604 111.574 80.2314 106.035 74.7266C104.394 73.0953 104.215 70.5857 105.357 68.6641Z" fill="white" stroke="white" stroke-width="1.81545"/>
</g>
<g filter="url(#filter1_d_144_1947)">
<rect width="256" height="256" transform="translate(256)" fill="url(#paint2_linear_144_1947)"/>
<path d="M361.9 183.9V120.348M406.1 111.256L367.65 77.1935C365.419 75.2171 361.9 76.8009 361.9 79.7814V120.348M361.9 120.348L393.139 147.948" stroke="white" stroke-width="15.6" stroke-linecap="round"/>
</g>
<g filter="url(#filter2_d_144_1947)">
<rect width="256" height="256" transform="translate(0 256)" fill="url(#paint3_linear_144_1947)"/>
<path d="M118.201 324.358C122.068 324.417 124.694 327.874 123.756 331.626C123.091 335.398 122.314 340.113 121.427 345.77C120.65 351.428 119.984 357.418 119.43 363.741C118.986 370.064 118.764 376.221 118.764 382.212C118.764 392.639 119.541 401.958 121.094 410.167C122.182 415.461 123.388 420.446 124.713 425.124C125.829 429.065 123.642 433.245 119.707 434.383C116.011 435.452 112.116 433.433 111.096 429.723C110.405 427.21 109.744 424.518 109.113 421.649C107.893 415.991 106.894 409.945 106.118 403.511C105.341 397.077 104.953 390.643 104.953 384.208C104.953 377.331 105.175 370.675 105.619 364.24C106.173 357.806 106.783 351.816 107.449 346.269C108.115 340.612 108.614 335.786 108.947 331.793C109.689 327.712 112.676 324.273 116.823 324.336L118.201 324.358ZM100.46 341.111C112.108 341.111 123.867 340.667 135.737 339.78C144.713 339.025 153.339 337.857 161.617 336.278C165.713 335.496 169.61 338.522 169.711 342.691C169.79 345.982 167.43 348.833 164.17 349.29C160.919 349.747 157.431 350.182 153.708 350.596C147.829 351.261 141.727 351.871 135.404 352.426C129.192 352.87 123.091 353.258 117.1 353.591C111.11 353.924 105.563 354.09 100.46 354.09C98.3525 354.09 95.801 354.035 92.8058 353.924C89.9216 353.813 87.0373 353.646 84.153 353.425C83.7335 353.391 83.3229 353.359 82.9212 353.328C79.5673 353.069 76.9037 350.354 76.7808 346.992L76.756 346.314C76.6214 342.637 79.8308 339.706 83.4874 340.113C86.4826 340.445 89.5333 340.723 92.6394 340.945C95.8565 341.055 98.4634 341.111 100.46 341.111ZM152.808 357.901C156.601 358.804 158.804 362.766 157.571 366.464C157.558 366.502 157.547 366.537 157.535 366.57C157.092 367.901 156.703 369.011 156.371 369.898C152.266 382.434 147.108 393.194 140.895 402.18C134.794 411.165 127.972 418.487 120.428 424.145C115.769 427.694 110.611 430.634 104.953 432.964C99.4064 435.182 94.3034 436.292 89.6442 436.292C86.2053 436.292 83.0992 435.682 80.3258 434.461C77.5525 433.241 75.3338 431.3 73.6698 428.637C72.0058 425.864 71.1738 422.203 71.1738 417.655C71.1738 410.666 73.0042 404.01 76.665 397.687C80.4368 391.364 85.3178 385.817 91.3082 381.047C97.4096 376.166 103.899 372.45 110.777 369.898C115.325 368.123 120.206 366.792 125.42 365.904C130.634 365.017 135.626 364.573 140.396 364.573C149.715 364.573 157.702 366.182 164.358 369.399C171.014 372.505 176.061 376.831 179.5 382.378C183.05 387.814 184.825 393.971 184.825 400.848C184.825 407.061 183.327 413.107 180.332 418.986C177.448 424.866 172.622 430.024 165.855 434.461C159.977 438.22 152.424 441.057 143.196 442.974C140.603 443.513 137.978 442.322 136.564 440.083C133.962 435.963 136.608 430.529 141.339 429.36C145.456 428.343 149.136 426.992 152.377 425.309C158.146 422.314 162.472 418.598 165.356 414.161C168.351 409.723 169.849 404.898 169.849 399.684C169.849 395.357 168.684 391.475 166.355 388.036C164.025 384.486 160.642 381.712 156.204 379.716C151.767 377.608 146.331 376.554 139.897 376.554C133.907 376.554 128.471 377.22 123.59 378.551C118.82 379.882 114.715 381.324 111.276 382.877C106.728 384.874 102.402 387.647 98.297 391.197C94.3034 394.636 91.0309 398.463 88.4794 402.679C86.0389 406.783 84.8186 410.943 84.8186 415.159C84.8186 417.599 85.4842 419.43 86.8154 420.65C88.1466 421.87 89.977 422.481 92.3066 422.481C95.3018 422.481 98.8517 421.538 102.956 419.652C107.172 417.655 111.276 414.882 115.27 411.332C121.038 406.451 126.419 400.405 131.411 393.194C136.514 385.983 140.563 377.22 143.558 366.903C143.78 366.126 144.057 365.073 144.39 363.741C144.422 363.601 144.461 363.429 144.503 363.232C145.322 359.473 149.065 357.01 152.808 357.901Z" fill="white"/>
</g>
<g filter="url(#filter3_d_144_1947)">
<rect width="256" height="256" transform="translate(256 256)" fill="url(#paint4_linear_144_1947)"/>
<rect width="256" height="256" transform="translate(256 256)" fill="url(#paint5_linear_144_1947)"/>
<rect width="256" height="256" transform="translate(256 256)" fill="url(#paint6_linear_144_1947)"/>
<path d="M372.972 432.165C365.619 432.165 359.186 430.327 353.671 426.651C348.157 422.974 343.848 417.575 340.747 410.452C337.645 403.329 336.094 394.655 336.094 384.43C336.094 368.576 339.483 356.513 346.261 348.242C353.039 339.97 362.173 335.834 373.661 335.834C378.142 335.834 382.105 336.466 385.552 337.73C389.113 338.878 392.215 340.544 394.857 342.727C397.543 344.741 399.847 347.082 401.77 349.75C401.866 349.884 402.021 349.965 402.186 349.965C402.433 349.965 402.644 349.788 402.688 349.546L403.732 343.761C404.381 340.17 407.507 337.557 411.156 337.557H411.599C416.058 337.557 419.673 341.172 419.673 345.631V407.35C419.673 411.026 420.362 413.554 421.74 414.932C422.208 415.364 423.199 415.644 424.394 415.824C428.493 416.443 431.889 419.495 431.896 423.641C431.903 427.278 429.335 430.547 425.793 431.375C423.945 431.806 422.274 432.165 421.74 432.165C417.03 432.165 413.124 431.131 410.022 429.063C407.166 427.086 404.993 423.638 403.502 418.72C403.38 418.316 403.01 418.034 402.588 418.034C402.279 418.034 401.991 418.186 401.81 418.436C400.022 420.922 397.819 423.2 395.202 425.272C392.445 427.455 389.171 429.178 385.379 430.442C381.703 431.591 377.567 432.165 372.972 432.165ZM377.969 417.345C383.828 417.345 388.481 416.196 391.928 413.898C395.489 411.601 398.074 408.097 399.683 403.386C401.291 398.561 402.095 392.53 402.095 385.292V384.258C402.095 373.344 400.314 365.072 396.753 359.443C393.192 353.699 386.873 350.826 377.797 350.826C369.985 350.826 364.183 353.699 360.392 359.443C356.716 365.187 354.877 373.574 354.877 384.603C354.877 395.402 356.83 403.559 360.737 409.073C364.643 414.588 370.387 417.345 377.969 417.345Z" fill="white" stroke="white" stroke-width="1.34631"/>
</g>
</g>
<defs>
<filter id="filter0_d_144_1947" x="-7.63444" y="-7.63444" width="282.721" height="282.721" filterUnits="userSpaceOnUse" color-interpolation-filters="sRGB">
<feFlood flood-opacity="0" result="BackgroundImageFix"/>
<feColorMatrix in="SourceAlpha" type="matrix" values="0 0 0 0 0 0 0 0 0 0 0 0 0 0 0 0 0 0 127 0" result="hardAlpha"/>
<feOffset dx="5.72583" dy="5.72583"/>
<feGaussianBlur stdDeviation="6.68013"/>
<feComposite in2="hardAlpha" operator="out"/>
<feColorMatrix type="matrix" values="0 0 0 0 0 0 0 0 0 0 0 0 0 0 0 0 0 0 0.15 0"/>
<feBlend mode="normal" in2="BackgroundImageFix" result="effect1_dropShadow_144_1947"/>
<feBlend mode="normal" in="SourceGraphic" in2="effect1_dropShadow_144_1947" result="shape"/>
</filter>
<filter id="filter1_d_144_1947" x="248.366" y="-7.63444" width="282.721" height="282.721" filterUnits="userSpaceOnUse" color-interpolation-filters="sRGB">
<feFlood flood-opacity="0" result="BackgroundImageFix"/>
<feColorMatrix in="SourceAlpha" type="matrix" values="0 0 0 0 0 0 0 0 0 0 0 0 0 0 0 0 0 0 127 0" result="hardAlpha"/>
<feOffset dx="5.72583" dy="5.72583"/>
<feGaussianBlur stdDeviation="6.68013"/>
<feComposite in2="hardAlpha" operator="out"/>
<feColorMatrix type="matrix" values="0 0 0 0 0 0 0 0 0 0 0 0 0 0 0 0 0 0 0.15 0"/>
<feBlend mode="normal" in2="BackgroundImageFix" result="effect1_dropShadow_144_1947"/>
<feBlend mode="normal" in="SourceGraphic" in2="effect1_dropShadow_144_1947" result="shape"/>
</filter>
<filter id="filter2_d_144_1947" x="-7.63444" y="248.366" width="282.721" height="282.721" filterUnits="userSpaceOnUse" color-interpolation-filters="sRGB">
<feFlood flood-opacity="0" result="BackgroundImageFix"/>
<feColorMatrix in="SourceAlpha" type="matrix" values="0 0 0 0 0 0 0 0 0 0 0 0 0 0 0 0 0 0 127 0" result="hardAlpha"/>
<feOffset dx="5.72583" dy="5.72583"/>
<feGaussianBlur stdDeviation="6.68013"/>
<feComposite in2="hardAlpha" operator="out"/>
<feColorMatrix type="matrix" values="0 0 0 0 0 0 0 0 0 0 0 0 0 0 0 0 0 0 0.15 0"/>
<feBlend mode="normal" in2="BackgroundImageFix" result="effect1_dropShadow_144_1947"/>
<feBlend mode="normal" in="SourceGraphic" in2="effect1_dropShadow_144_1947" result="shape"/>
</filter>
<filter id="filter3_d_144_1947" x="248.366" y="248.366" width="282.721" height="282.721" filterUnits="userSpaceOnUse" color-interpolation-filters="sRGB">
<feFlood flood-opacity="0" result="BackgroundImageFix"/>
<feColorMatrix in="SourceAlpha" type="matrix" values="0 0 0 0 0 0 0 0 0 0 0 0 0 0 0 0 0 0 127 0" result="hardAlpha"/>
<feOffset dx="5.72583" dy="5.72583"/>
<feGaussianBlur stdDeviation="6.68013"/>
<feComposite in2="hardAlpha" operator="out"/>
<feColorMatrix type="matrix" values="0 0 0 0 0 0 0 0 0 0 0 0 0 0 0 0 0 0 0.15 0"/>
<feBlend mode="normal" in2="BackgroundImageFix" result="effect1_dropShadow_144_1947"/>
<feBlend mode="normal" in="SourceGraphic" in2="effect1_dropShadow_144_1947" result="shape"/>
</filter>
<linearGradient id="paint0_linear_144_1947" x1="512" y1="261.926" x2="8.95777e-06" y2="264.059" gradientUnits="userSpaceOnUse">
<stop stop-color="#36D5D8"/>
<stop offset="1" stop-color="#097D89"/>
</linearGradient>
<linearGradient id="paint1_linear_144_1947" x1="36.0563" y1="43.2676" x2="241.577" y2="243.38" gradientUnits="userSpaceOnUse">
<stop stop-color="#36D5D8"/>
<stop offset="1" stop-color="#087986"/>
</linearGradient>
<linearGradient id="paint2_linear_144_1947" x1="36.0563" y1="43.2676" x2="241.577" y2="243.38" gradientUnits="userSpaceOnUse">
<stop stop-color="#36D5D8"/>
<stop offset="1" stop-color="#087986"/>
</linearGradient>
<linearGradient id="paint3_linear_144_1947" x1="36.0563" y1="43.2676" x2="241.577" y2="243.38" gradientUnits="userSpaceOnUse">
<stop stop-color="#36D5D8"/>
<stop offset="1" stop-color="#087986"/>
</linearGradient>
<linearGradient id="paint4_linear_144_1947" x1="36.0563" y1="43.2676" x2="241.577" y2="243.38" gradientUnits="userSpaceOnUse">
<stop stop-color="#36D5D8"/>
<stop offset="1" stop-color="#087986"/>
</linearGradient>
<linearGradient id="paint5_linear_144_1947" x1="36.0563" y1="43.2676" x2="241.577" y2="243.38" gradientUnits="userSpaceOnUse">
<stop stop-color="#F99F20"/>
<stop offset="1" stop-color="#F96120"/>
</linearGradient>
<linearGradient id="paint6_linear_144_1947" x1="36.0563" y1="43.2676" x2="241.577" y2="243.38" gradientUnits="userSpaceOnUse">
<stop stop-color="#FFB310"/>
<stop offset="1" stop-color="#F96120"/>
</linearGradient>
<clipPath id="clip0_144_1947">
<path d="M0 34C0 15.2223 15.2223 0 34 0H478C496.778 0 512 15.2223 512 34V478C512 496.778 496.778 512 478 512H34C15.2223 512 0 496.778 0 478V34Z" fill="white"/>
</clipPath>
</defs>
</svg>
